<svg width="22" height="18" viewBox="0 0 22 18" fill="none" xmlns="http://www.w3.org/2000/svg">
<path d="M18.7143 10.2857V16.7143C18.7143 16.9464 18.6295 17.1473 18.4598 17.317C18.2902 17.4866 18.0893 17.5714 17.8571 17.5714H12.7143V12.4286H9.2857V17.5714H4.14285C3.9107 17.5714 3.70981 17.4866 3.54017 17.317C3.37052 17.1473 3.2857 16.9464 3.2857 16.7143V10.2857C3.2857 10.2768 3.28794 10.2634 3.2924 10.2455C3.29686 10.2277 3.2991 10.2143 3.2991 10.2054L11 3.85714L18.7009 10.2054C18.7098 10.2232 18.7143 10.25 18.7143 10.2857ZM21.7009 9.36161L20.8705 10.3527C20.7991 10.433 20.7053 10.4821 20.5893 10.5H20.5491C20.433 10.5 20.3393 10.4687 20.2678 10.4062L11 2.67857L1.73213 10.4062C1.62499 10.4777 1.51785 10.5089 1.4107 10.5C1.29463 10.4821 1.20088 10.433 1.12945 10.3527L0.299096 9.36161C0.227667 9.27232 0.196417 9.16741 0.205346 9.04688C0.214274 8.92634 0.263381 8.83036 0.352667 8.75893L9.98213 0.736608C10.2678 0.504465 10.6071 0.388393 11 0.388393C11.3928 0.388393 11.7321 0.504465 12.0178 0.736608L15.2857 3.46875V0.857143C15.2857 0.732143 15.3259 0.629465 15.4062 0.549108C15.4866 0.468751 15.5893 0.428572 15.7143 0.428572H18.2857C18.4107 0.428572 18.5134 0.468751 18.5937 0.549108C18.6741 0.629465 18.7143 0.732143 18.7143 0.857143V6.32143L21.6473 8.75893C21.7366 8.83036 21.7857 8.92634 21.7946 9.04688C21.8036 9.16741 21.7723 9.27232 21.7009 9.36161Z" fill="black"/>
</svg>
