<svg width="24" height="24" viewBox="0 0 24 24" fill="none" xmlns="http://www.w3.org/2000/svg">
<path d="M12 10.6667C13.3562 10.6667 14.682 10.3539 15.8096 9.76784C16.9373 9.1818 17.8162 8.34885 18.3352 7.37431C18.8542 6.39977 18.99 5.32742 18.7254 4.29285C18.4608 3.25829 17.8077 2.30798 16.8487 1.5621C15.8897 0.816219 14.6679 0.308269 13.3378 0.102481C12.0076 -0.103307 10.6289 0.00231083 9.37588 0.405978C8.12291 0.809645 7.05197 1.49323 6.29849 2.37029C5.54502 3.24736 5.14286 4.2785 5.14286 5.33334C5.14286 6.74782 5.8653 8.10438 7.15127 9.10457C8.43723 10.1048 10.1814 10.6667 12 10.6667ZM22.2857 24C22.7404 24 23.1764 23.8595 23.4979 23.6095C23.8194 23.3594 24 23.0203 24 22.6667C24 20.1913 22.7357 17.8173 20.4853 16.067C18.2348 14.3167 15.1826 13.3333 12 13.3333C8.8174 13.3333 5.76516 14.3167 3.51472 16.067C1.26428 17.8173 4.74244e-08 20.1913 0 22.6667C0 23.0203 0.180612 23.3594 0.502103 23.6095C0.823594 23.8595 1.25963 24 1.71429 24H22.2857Z" fill="black"/>
</svg>
