<svg width="24" height="24" viewBox="0 0 24 24" fill="none" xmlns="http://www.w3.org/2000/svg">
<path d="M13 21C12.7348 21 12.4804 21.1054 12.2929 21.2929C12.1054 21.4804 12 21.7348 12 22C12 22.2652 12.1054 22.5196 12.2929 22.7071C12.4804 22.8946 12.7348 23 13 23H21C21.2652 23 21.5196 22.8946 21.7071 22.7071C21.8946 22.5196 22 22.2652 22 22V2C22 1.73478 21.8946 1.48043 21.7071 1.29289C21.5196 1.10536 21.2652 1 21 1H13C12.7348 1 12.4804 1.10536 12.2929 1.29289C12.1054 1.48043 12 1.73478 12 2C12 2.26522 12.1054 2.51957 12.2929 2.70711C12.4804 2.89464 12.7348 3 13 3H20V21H13Z" fill="black"/>
<path d="M2 12C2 12.2652 2.10536 12.5196 2.29289 12.7071C2.48043 12.8946 2.73478 13 3 13H14.586L12.293 15.293C12.1975 15.3852 12.1213 15.4956 12.0689 15.6176C12.0165 15.7396 11.9889 15.8708 11.9877 16.0036C11.9866 16.1364 12.0119 16.268 12.0622 16.3909C12.1125 16.5138 12.1867 16.6255 12.2806 16.7194C12.3745 16.8133 12.4861 16.8875 12.609 16.9378C12.7319 16.9881 12.8636 17.0134 12.9964 17.0122C13.1292 17.0111 13.2604 16.9835 13.3824 16.9311C13.5044 16.8787 13.6148 16.8025 13.707 16.707L17.707 12.707C17.8945 12.5195 17.9998 12.2652 17.9998 12C17.9998 11.7348 17.8945 11.4805 17.707 11.293L13.707 7.29299C13.6148 7.19748 13.5044 7.1213 13.3824 7.06889C13.2604 7.01648 13.1292 6.98889 12.9964 6.98774C12.8636 6.98659 12.7319 7.01189 12.609 7.06217C12.4861 7.11245 12.3745 7.1867 12.2806 7.28059C12.1867 7.37449 12.1125 7.48614 12.0622 7.60904C12.0119 7.73193 11.9866 7.86361 11.9877 7.99639C11.9889 8.12917 12.0165 8.26039 12.0689 8.38239C12.1213 8.5044 12.1975 8.61474 12.293 8.70699L14.586 11H3C2.73478 11 2.48043 11.1053 2.29289 11.2929C2.10536 11.4804 2 11.7348 2 12Z" fill="black"/>
</svg>
