<svg width="24" height="24" viewBox="0 0 24 24" fill="none" xmlns="http://www.w3.org/2000/svg">
<path d="M24 2.08149C24 0.100457 14.004 0 12 0C9.996 0 0 0.100457 0 2.08149C0 2.09794 0.00180014 2.11406 0.00600014 2.13017L2.9274 13.7904C2.5949 13.867 2.30998 13.9986 2.10913 14.1682C1.90828 14.3379 1.80064 14.538 1.8 14.7429V23.6571C1.8 23.7481 1.86321 23.8353 1.97574 23.8996C2.08826 23.9639 2.24087 24 2.4 24H4.8C4.95475 24 5.10352 23.9658 5.21521 23.9046C5.32691 23.8434 5.3929 23.7599 5.3994 23.6715L5.8254 17.8286H18.1746L18.6 23.6715C18.6065 23.76 18.6726 23.8435 18.7844 23.9047C18.8962 23.9659 19.0451 24.0001 19.2 24H21.6C21.7591 24 21.9117 23.9639 22.0243 23.8996C22.1368 23.8353 22.2 23.7481 22.2 23.6571V14.7429C22.1994 14.538 22.0918 14.3379 21.891 14.1682C21.6901 13.9985 21.4051 13.867 21.0726 13.7904L23.994 2.12983C23.998 2.11393 24 2.09755 24 2.08149ZM1.5534 3.468C2.1276 3.1824 3.2982 2.9376 4.8684 2.75451L5.9646 13.7143H4.1202L1.5534 3.468ZM4.224 23.3143H3V15.7714H4.7748L4.224 23.3143ZM5.8746 17.1429L5.9748 15.7714H18.024L18.1242 17.1429H5.8746ZM21 23.3143H19.7754L19.2252 15.7714H21V23.3143ZM21 15.0857H3V14.7429C3 14.5536 3.2694 14.4 3.6 14.4H20.4C20.7306 14.4 21 14.5536 21 14.7429V15.0857ZM6.0588 2.63417C7.6092 2.49909 9.4344 2.41749 11.4 2.40343V13.7143H7.167L6.0588 2.63417ZM12.6 13.7143V2.40343C14.5668 2.41714 16.392 2.49874 17.9412 2.63314L16.833 13.7143H12.6ZM19.8798 13.7143H18.036L19.1322 2.75349C20.7018 2.93657 21.8718 3.18171 22.4472 3.468L19.8798 13.7143ZM22.635 2.71509C20.442 1.98651 15.9186 1.71429 12 1.71429H11.934C8.0502 1.71771 3.5496 1.99097 1.365 2.71543L1.2012 2.06229C1.284 1.39371 5.6022 0.685714 12 0.685714C14.9412 0.685714 17.6754 0.836572 19.6992 1.1112C21.9312 1.41394 22.761 1.79726 22.7988 2.06263L22.635 2.71509Z" fill="black"/>
</svg>
