<svg width="24" height="24" viewBox="0 0 24 24" fill="none" xmlns="http://www.w3.org/2000/svg">
<path d="M23.6 12.8H20.8V10.8C20.8 10.6939 20.7579 10.5922 20.6828 10.5172C20.6078 10.4421 20.5061 10.4 20.4 10.4H18.4V8.4C18.4 8.29391 18.3579 8.19217 18.2828 8.11716C18.2078 8.04214 18.1061 8 18 8H16.8C16.8042 6.79333 16.3538 5.62934 15.5384 4.73983C14.723 3.85032 13.6025 3.30055 12.4 3.2V2.4H15.2C15.3061 2.4 15.4078 2.35786 15.4828 2.28284C15.5579 2.20783 15.6 2.10609 15.6 2V0.4C15.6 0.293913 15.5579 0.192172 15.4828 0.117157C15.4078 0.0421427 15.3061 0 15.2 0H12C11.8939 0 11.7922 0.0421427 11.7172 0.117157C11.6421 0.192172 11.6 0.293913 11.6 0.4V3.2C10.3975 3.30055 9.27702 3.85032 8.46163 4.73983C7.64625 5.62934 7.1958 6.79333 7.2 8H6C5.89391 8 5.79217 8.04214 5.71716 8.11716C5.64214 8.19217 5.6 8.29391 5.6 8.4V10.4H3.6C3.49391 10.4 3.39217 10.4421 3.31716 10.5172C3.24214 10.5922 3.2 10.6939 3.2 10.8V12.8H0.4C0.293913 12.8 0.192172 12.8421 0.117157 12.9172C0.0421427 12.9922 0 13.0939 0 13.2V23.6C0 23.7061 0.0421427 23.8078 0.117157 23.8828C0.192172 23.9579 0.293913 24 0.4 24H23.6C23.7061 24 23.8078 23.9579 23.8828 23.8828C23.9579 23.8078 24 23.7061 24 23.6V13.2C24 13.0939 23.9579 12.9922 23.8828 12.9172C23.8078 12.8421 23.7061 12.8 23.6 12.8ZM17.6 8.8V10.8C17.6 10.9061 17.6421 11.0078 17.7172 11.0828C17.7922 11.1579 17.8939 11.2 18 11.2H20V12.8H16.8V8.8H17.6ZM14.8 1.6H12.4V0.8H14.8V1.6ZM8 8C8 6.93913 8.42143 5.92172 9.17157 5.17157C9.92172 4.42143 10.9391 4 12 4C13.0609 4 14.0783 4.42143 14.8284 5.17157C15.5786 5.92172 16 6.93913 16 8V12.8H8V8ZM4 11.2H6C6.10609 11.2 6.20783 11.1579 6.28284 11.0828C6.35786 11.0078 6.4 10.9061 6.4 10.8V8.8H7.2V12.8H4V11.2ZM14.4 23.2H9.6V20C9.59632 19.6418 9.67862 19.2879 9.84 18.968C10.0345 18.5596 10.3405 18.2145 10.7227 17.9724C11.1048 17.7304 11.5476 17.6013 12 17.6C12.6363 17.6006 13.2463 17.8538 13.696 18.304C13.8931 18.4972 14.0531 18.725 14.168 18.976C14.3262 19.2938 14.4058 19.645 14.4 20V23.2ZM23.2 23.2H15.2V20C15.2052 19.5283 15.0983 19.0622 14.888 18.64C14.7362 18.3059 14.5248 18.0022 14.264 17.744C13.9689 17.4433 13.6165 17.2049 13.2276 17.0427C12.8387 16.8806 12.4213 16.7981 12 16.8C11.3977 16.801 10.8079 16.9719 10.2984 17.2932C9.78896 17.6144 9.38049 18.0729 9.12 18.616C8.90437 19.0452 8.79464 19.5197 8.8 20V23.2H0.8V13.6H23.2V23.2Z" fill="black"/>
</svg>
